<?xml version="1.0" encoding="UTF-8" standalone="no"?>
<!DOCTYPE svg PUBLIC "-//W3C//DTD SVG 1.1//EN" "http://www.w3.org/Graphics/SVG/1.1/DTD/svg11.dtd">
<svg width="100%" height="100%" viewBox="0 0 165 34" version="1.1" xmlns="http://www.w3.org/2000/svg" xmlns:xlink="http://www.w3.org/1999/xlink" xml:space="preserve" xmlns:serif="http://www.serif.com/" style="fill-rule:evenodd;clip-rule:evenodd;stroke-linejoin:round;stroke-miterlimit:1.41421;">
    <g transform="matrix(1,0,0,1,-105.42,-12.32)">
        <g>
            <g>
                <path d="M115.572,20.6L110.388,20.6L110.388,38.852C110.388,41.192 109.596,42.092 108.444,42.092C107.508,42.092 106.68,41.912 105.924,41.732L105.42,45.296C106.464,45.584 107.724,45.8 109.38,45.8C113.664,45.8 115.572,43.244 115.572,39.032L115.572,20.6ZM110.388,17.792L115.608,17.792L115.608,13.364L110.388,13.364L110.388,17.792Z" style="fill:white;fill-rule:nonzero;"/>
                <path d="M122.484,26.792C122.448,26.504 122.412,26.18 122.412,25.964C122.412,24.452 123.456,23.768 125.616,23.768C127.776,23.768 128.748,24.848 128.748,26.396L128.748,27.8C119.928,27.98 116.976,30.14 116.976,33.848C116.976,37.052 119.244,38.6 122.7,38.6C126.516,38.6 128.676,36.512 129.288,35.792L129.504,35.792C129.576,37.124 130.152,38.6 132.78,38.6C133.824,38.6 134.94,38.384 135.732,38.132L135.516,34.676C135.228,34.784 134.904,34.82 134.616,34.82C134.112,34.82 133.824,34.532 133.824,33.812L133.824,26.648C133.824,23.336 132.132,20.24 125.868,20.24C120.288,20.24 117.732,22.4 117.732,25.784C117.732,26.18 117.768,26.684 117.84,27.08L122.484,26.792ZM121.98,33.2C121.98,31.688 123.456,30.608 128.748,30.5L128.748,33.092C127.74,34.244 126.048,35.036 124.392,35.036C122.844,35.036 121.98,34.496 121.98,33.2Z" style="fill:white;fill-rule:nonzero;"/>
                <path d="M135.66,29.456C135.66,35.252 138.756,38.6 144.948,38.6C152.328,38.6 153.084,34.208 153.084,32.444C153.084,32.192 153.084,31.868 153.012,31.508L147.864,31.436C147.936,31.652 147.936,31.868 147.936,32.012C147.936,33.092 147.36,34.892 144.804,34.892C142.248,34.892 140.952,32.984 140.952,29.456C140.952,25.316 142.392,23.948 144.804,23.948C147.36,23.948 147.936,25.784 147.936,26.828C147.936,27.008 147.936,27.224 147.864,27.44L153.012,27.332C153.084,26.936 153.084,26.684 153.084,26.396C153.084,24.488 152.328,20.24 144.948,20.24C138.468,20.24 135.66,24.452 135.66,29.456Z" style="fill:white;fill-rule:nonzero;"/>
                <path d="M154.596,38.24L159.78,38.24L159.78,32.804C160.428,32.408 161.868,31.436 162.552,30.896C163.344,31.76 166.62,37.592 167.376,38.24L172.956,38.24L172.956,37.628C171.984,36.836 167.34,29.204 166.404,28.088C168.132,26.612 170.76,23.984 172.596,21.212L172.596,20.6L166.944,20.6C165.216,23.372 162.264,26.144 159.78,27.836L159.78,12.32L154.596,12.32L154.596,38.24Z" style="fill:white;fill-rule:nonzero;"/>
                <path d="M173.712,38.24L177.6,38.24L178.356,36.296L178.572,36.296C179.4,37.196 180.948,38.6 184.08,38.6C188.04,38.6 191.604,36.008 191.604,29.384C191.604,22.688 187.932,20.24 184.08,20.24C181.632,20.24 179.976,21.248 179.112,22.256L178.896,22.256L178.896,12.32L173.712,12.32L173.712,38.24ZM178.896,25.496C179.688,24.596 180.948,23.948 182.172,23.948C184.476,23.948 186.312,25.136 186.312,29.384C186.312,33.596 184.584,34.892 182.172,34.892C180.696,34.892 179.544,34.208 178.896,33.38L178.896,25.496Z" style="fill:white;fill-rule:nonzero;"/>
                <path d="M192.144,29.456C192.144,35 195.168,38.6 201.432,38.6C207.624,38.6 210.72,35 210.72,29.456C210.72,23.876 207.624,20.24 201.432,20.24C195.168,20.24 192.144,23.876 192.144,29.456ZM201.432,34.892C198.948,34.892 197.4,33.488 197.4,29.456C197.4,25.352 198.948,23.948 201.432,23.948C203.844,23.948 205.428,25.352 205.428,29.456C205.428,33.488 203.844,34.892 201.432,34.892Z" style="fill:white;fill-rule:nonzero;"/>
                <path d="M210.144,38.24L215.652,38.24L218.028,34.676C218.676,33.668 219.108,32.984 219.648,31.904L219.9,31.904C220.476,32.948 220.728,33.488 221.484,34.604L223.932,38.24L229.44,38.24L229.44,37.736L223.104,29.204L229.332,21.14L229.332,20.6L223.824,20.6L221.628,23.804C220.944,24.812 220.476,25.532 219.9,26.648L219.648,26.648C219.108,25.532 218.568,24.668 217.956,23.768L215.796,20.6L210.288,20.6L210.288,21.14L216.444,29.348L210.144,37.736L210.144,38.24Z" style="fill:white;fill-rule:nonzero;"/>
                <rect x="230.268" y="32.696" width="5.976" height="5.544" style="fill:white;fill-rule:nonzero;"/>
                <path d="M239.844,32.912C239.844,36.836 241.608,38.6 245.712,38.6C247.62,38.6 249.708,38.276 251.148,37.772L250.824,33.668C249.6,34.208 248.34,34.568 247.296,34.568C245.604,34.568 245.028,33.848 245.028,32.228L245.028,23.804L251.004,23.804L251.004,20.6L245.028,20.6L245.028,16.604L240.852,16.604L240.204,20.6L236.604,20.6L236.604,23.804L239.844,23.804L239.844,32.912Z" style="fill:white;fill-rule:nonzero;"/>
                <path d="M257.124,38.24L262.776,38.24L269.58,20.96L269.58,20.6L264.36,20.6L261.192,29.996C260.724,31.364 260.364,32.984 260.148,34.208L259.752,34.208C259.536,32.984 259.14,31.292 258.708,29.96L255.54,20.6L250.32,20.6L250.32,20.96L257.124,38.24Z" style="fill:white;fill-rule:nonzero;"/>
            </g>
        </g>
    </g>
</svg>
