<svg version="1.1" viewBox="0.0 0.0 960.0 266.6666666666667" fill="none" stroke="none" stroke-linecap="square" stroke-miterlimit="10" xmlns:xlink="http://www.w3.org/1999/xlink" xmlns="http://www.w3.org/2000/svg"><clipPath id="p.0"><path d="m0 0l960.0 0l0 266.66666l-960.0 0l0 -266.66666z" clip-rule="nonzero"/></clipPath><g clip-path="url(#p.0)"><path fill="#000000" fill-opacity="0.0" d="m0 0l960.0 0l0 266.66666l-960.0 0z" fill-rule="evenodd"/><path fill="#000000" fill-opacity="0.0" d="m0 0l960.0 0l0 266.67715l-960.0 0z" fill-rule="evenodd"/><path fill="#ffffff" d="m41.634216 91.05733l0 -17.015625l14.640625 0l0 17.015625l-14.640625 0zm-18.5625 135.8125l2.78125 -12.453125q4.390625 1.140625 6.90625 1.140625q4.484375 0 6.671875 -2.96875q2.203125 -2.96875 2.203125 -14.859375l0 -90.8125l14.640625 0l0 91.140625q0 15.953125 -4.140625 22.21875q-5.296875 8.140625 -17.578125 8.140625q-5.9375 0 -11.484375 -1.546875zm112.05693 -44.1875q-8.140625 6.90625 -15.671875 9.765625q-7.515625 2.84375 -16.140625 2.84375q-14.25 0 -21.90625 -6.953125q-7.640625 -6.96875 -7.640625 -17.78125q0 -6.34375 2.890625 -11.59375q2.890625 -5.25 7.5625 -8.421875q4.6875 -3.1875 10.546875 -4.8125q4.3125 -1.140625 13.015625 -2.1875q17.75 -2.125 26.125 -5.046875q0.078125 -3.015625 0.078125 -3.828125q0 -8.953125 -4.140625 -12.609375q-5.625 -4.96875 -16.6875 -4.96875q-10.328125 0 -15.265625 3.625q-4.921875 3.625 -7.28125 12.8125l-14.3125 -1.953125q1.953125 -9.1875 6.421875 -14.84375q4.484375 -5.65625 12.9375 -8.703125q8.46875 -3.0625 19.609375 -3.0625q11.078125 0 17.984375 2.609375q6.921875 2.59375 10.171875 6.546875q3.265625 3.953125 4.5625 9.96875q0.734375 3.75 0.734375 13.515625l0 19.515625q0 20.4375 0.9375 25.84375q0.9375 5.40625 3.703125 10.375l-15.296875 0q-2.28125 -4.5625 -2.9375 -10.65625zm-1.21875 -32.71875q-7.96875 3.25 -23.921875 5.53125q-9.03125 1.3125 -12.78125 2.9375q-3.734375 1.625 -5.78125 4.765625q-2.03125 3.125 -2.03125 6.953125q0 5.859375 4.4375 9.765625q4.4375 3.90625 12.984375 3.90625q8.453125 0 15.046875 -3.703125q6.59375 -3.703125 9.6875 -10.140625q2.359375 -4.953125 2.359375 -14.640625l0 -5.375zm31.655014 17.578125l14.484375 -2.28125q1.21875 8.703125 6.796875 13.34375q5.578125 4.640625 15.578125 4.640625q10.09375 0 14.96875 -4.109375q4.890625 -4.109375 4.890625 -9.640625q0 -4.96875 -4.3125 -7.8125q-3.015625 -1.953125 -14.96875 -4.96875q-16.109375 -4.0625 -22.34375 -7.03125q-6.21875 -2.96875 -9.4375 -8.21875q-3.21875 -5.25 -3.21875 -11.59375q0 -5.78125 2.640625 -10.703125q2.65625 -4.921875 7.21875 -8.1875q3.40625 -2.515625 9.296875 -4.265625q5.90625 -1.75 12.671875 -1.75q10.171875 0 17.859375 2.9375q7.6875 2.921875 11.34375 7.9375q3.671875 5.0 5.046875 13.375l-14.3125 1.953125q-0.984375 -6.671875 -5.671875 -10.40625q-4.671875 -3.75 -13.21875 -3.75q-10.078125 0 -14.390625 3.34375q-4.3125 3.328125 -4.3125 7.796875q0 2.859375 1.78125 5.125q1.796875 2.375 5.609375 3.90625q2.203125 0.828125 12.953125 3.75q15.53125 4.15625 21.671875 6.796875q6.15625 2.640625 9.65625 7.6875q3.5 5.046875 3.5 12.53125q0 7.328125 -4.28125 13.796875q-4.265625 6.46875 -12.328125 10.015625q-8.046875 3.53125 -18.21875 3.53125q-16.859375 0 -25.6875 -7.0q-8.828125 -7.0 -11.265625 -20.75zm89.1875 58.921875l0 -119.546875l13.34375 0l0 11.234375q4.71875 -6.59375 10.65625 -9.890625q5.953125 -3.296875 14.40625 -3.296875q11.078125 0 19.53125 5.703125q8.46875 5.6875 12.78125 16.0625q4.3125 10.375 4.3125 22.75q0 13.265625 -4.765625 23.890625q-4.75 10.609375 -13.828125 16.265625q-9.078125 5.65625 -19.078125 5.65625q-7.328125 0 -13.15625 -3.09375q-5.8125 -3.09375 -9.546875 -7.8125l0 42.078125l-14.65625 0zm13.265625 -75.84375q0 16.671875 6.75 24.65625q6.765625 7.96875 16.359375 7.96875q9.765625 0 16.71875 -8.25q6.96875 -8.265625 6.96875 -25.59375q0 -16.53125 -6.796875 -24.75q-6.796875 -8.21875 -16.234375 -8.21875q-9.359375 0 -16.5625 8.75q-7.203125 8.75 -7.203125 25.4375zm138.57687 14.890625l15.140625 1.875q-3.578125 13.265625 -13.265625 20.59375q-9.6875 7.3125 -24.734375 7.3125q-18.96875 0 -30.078125 -11.671875q-11.09375 -11.6875 -11.09375 -32.765625q0 -21.796875 11.21875 -33.84375q11.234375 -12.046875 29.140625 -12.046875q17.328125 0 28.3125 11.796875q10.984375 11.796875 10.984375 33.203125q0 1.296875 -0.078125 3.90625l-64.453125 0q0.8125 14.25 8.046875 21.8125q7.25 7.5625 18.078125 7.5625q8.0625 0 13.75 -4.21875q5.703125 -4.234375 9.03125 -13.515625zm-48.09375 -23.6875l48.265625 0q-0.984375 -10.90625 -5.53125 -16.34375q-7.0 -8.46875 -18.15625 -8.46875q-10.09375 0 -16.96875 6.75q-6.875 6.75 -7.609375 18.0625zm81.46753 51.515625l0 -86.421875l13.171875 0l0 13.109375q5.046875 -9.203125 9.3125 -12.125q4.28125 -2.9375 9.40625 -2.9375q7.40625 0 15.0625 4.71875l-5.046875 13.59375q-5.375 -3.171875 -10.75 -3.171875q-4.796875 0 -8.625 2.890625q-3.8125 2.890625 -5.453125 8.015625q-2.4375 7.8125 -2.4375 17.078125l0 45.25l-14.640625 0zm69.16971 0l-13.59375 0l0 -119.296875l14.640625 0l0 42.5625q9.2812805 -11.640625 23.68753 -11.640625q7.96875 0 15.09375 3.21875q7.125 3.21875 11.71875 9.03125q4.59375 5.8125 7.1875 14.03125q2.609375 8.21875 2.609375 17.578125q0 22.21875 -10.984375 34.34375q-10.984375 12.125 -26.359375 12.125q-15.296875 0 -24.00003 -12.78125l0 10.828125zm-0.171875 -43.859375q0 15.546875 4.2344055 22.453125q6.921875 11.3125 18.71875 11.3125q9.59375 0 16.59375 -8.328125q7.0 -8.34375 7.0 -24.875q0 -16.921875 -6.71875 -24.96875q-6.703125 -8.0625 -16.21875 -8.0625q-9.609375 0 -16.609375 8.34375q-7.0000305 8.34375 -7.0000305 24.125zm73.88937 0.65625q0 -24.015625 13.34375 -35.5625q11.15625 -9.609375 27.1875 -9.609375q17.8125 0 29.125 11.6875q11.3125 11.671875 11.3125 32.25q0 16.6875 -5.0 26.25q-5.0 9.5625 -14.5625 14.859375q-9.5625 5.28125 -20.875 5.28125q-18.15625 0 -29.34375 -11.625q-11.1875 -11.640625 -11.1875 -33.53125zm15.0625 0q0 16.59375 7.234375 24.859375q7.25 8.25 18.234375 8.25q10.90625 0 18.140625 -8.296875q7.25 -8.296875 7.25 -25.3125q0 -16.03125 -7.296875 -24.28125q-7.28125 -8.265625 -18.09375 -8.265625q-10.984375 0 -18.234375 8.21875q-7.234375 8.21875 -7.234375 24.828125zm73.31128 43.203125l31.578125 -44.921875l-29.21875 -41.5l18.3125 0l13.265625 20.265625q3.734375 5.78125 6.015625 9.6875q3.578125 -5.375 6.59375 -9.53125l14.5625 -20.421875l17.5 0l-29.859375 40.6875l32.140625 45.734375l-17.984375 0l-17.734375 -26.859375l-4.71875 -7.234375l-22.71875 34.09375l-17.734375 0zm97.25 0l0 -16.6875l16.671875 0l0 16.6875l-16.671875 0zm74.130554 -13.09375l2.109375 12.9375q-6.1875 1.296875 -11.0625 1.296875q-7.96875 0 -12.375 -2.515625q-4.390625 -2.53125 -6.1875 -6.640625q-1.78125 -4.109375 -1.78125 -17.296875l0 -49.71875l-10.75 0l0 -11.390625l10.75 0l0 -21.40625l14.5625 -8.78125l0 30.1875l14.734375 0l0 11.390625l-14.734375 0l0 50.53125q0 6.265625 0.765625 8.0625q0.78125 1.796875 2.53125 2.859375q1.75 1.046875 5.0 1.046875q2.453125 0 6.4375 -0.5625zm38.318054 13.09375l-32.875 -86.421875l15.46875 0l18.546875 51.75q3.015625 8.390625 5.546875 17.421875q1.9375 -6.84375 5.4375 -16.4375l19.21875 -52.734375l15.046875 0l-32.71875 86.421875l-13.671875 0z" fill-rule="nonzero"/></g></svg>